<svg width="128" height="128" viewBox="0 0 128 128" fill="none" xmlns="http://www.w3.org/2000/svg">
<rect width="128" height="128" fill="black"/>
<path d="M103.81 72.8202L93.6647 66.8808C92.9214 66.4457 92.0032 66.4453 91.2595 66.8798L86.0294 69.9354C84.1373 70.9785 81.7657 71.0318 79.7607 69.867C77.7558 68.7022 76.6158 66.3845 76.5675 64.2141C76.5986 62.0252 77.7403 59.9076 79.7613 58.7336C81.7614 57.5716 84.1263 57.622 86.0161 58.6578L91.2353 61.6899C91.9758 62.1201 92.8881 62.1201 93.6286 61.6899L103.803 55.7791C104.543 55.3489 104.999 54.5539 104.999 53.6935V41.8719C104.999 41.0115 104.543 40.2164 103.803 39.7862L93.6286 33.8754C92.8881 33.4452 91.9758 33.4452 91.2353 33.8754L81.061 39.7862C80.3206 40.2164 79.8644 41.0115 79.8644 41.8719V47.9195C79.8161 50.0899 78.6761 52.1832 76.6712 53.348C74.6503 54.5221 72.257 54.4582 70.3576 53.3909L65.1967 50.3926C64.4562 49.9624 63.5438 49.9624 62.8033 50.3926L52.6291 56.3034C51.8886 56.7336 51.4324 57.5286 51.4324 58.389V70.2106C51.4324 71.071 51.8886 71.8661 52.6291 72.2963L62.8033 78.207C63.5438 78.6372 64.4562 78.6372 65.1967 78.207L70.4031 75.1823C72.2952 74.1392 74.6668 74.0859 76.6717 75.2507C78.6767 76.4155 79.8167 78.5089 79.8649 80.6793V86.7287C79.8649 87.5891 80.3211 88.3841 81.0616 88.8143L91.2358 94.7251C91.9763 95.1553 92.8886 95.1553 93.6291 94.7251L103.803 88.8143C104.544 88.3841 105 87.5891 105 86.7287V74.9018C105 74.0442 104.547 73.2514 103.81 72.8202Z" fill="white"/>
<path d="M75.3703 39.261L65.1961 45.1719C64.4556 45.6021 63.5432 45.6021 62.8027 45.1719L57.5837 42.1398C55.6938 41.1038 53.329 41.0535 51.3287 42.2155C49.308 43.3895 48.1663 45.5071 48.1351 47.6961L48.1351 53.6925C48.1351 54.5529 47.6789 55.3479 46.9384 55.7781L36.7641 61.689C36.0236 62.1192 35.1113 62.1192 34.3708 61.689L24.1967 55.7783C23.4562 55.3481 23 54.553 23 53.6926L23.0001 41.8709C23.0001 41.0105 23.4562 40.2155 24.1967 39.7853L34.3709 33.8745C35.1114 33.4443 36.0237 33.4443 36.7642 33.8745L41.925 36.8728C43.8246 37.9401 46.2177 38.0041 48.2388 36.8299C50.2436 35.665 51.3836 33.5717 51.432 31.4014V25.3538C51.432 24.4934 51.8882 23.6984 52.6287 23.2682L62.8028 17.3574C63.5433 16.9272 64.4556 16.9272 65.1961 17.3574L75.3703 23.2682C76.1108 23.6984 76.5669 24.4934 76.5669 25.3538L76.567 37.1754C76.567 38.0357 76.1108 38.8308 75.3703 39.261Z" fill="white"/>
<path d="M75.3713 105.332L65.1972 111.242C64.4567 111.673 63.5444 111.673 62.8039 111.242L52.6297 105.332C51.8892 104.901 51.433 104.106 51.433 103.246L51.4329 97.1964C51.3847 95.0261 50.2446 92.9327 48.2398 91.768C46.2347 90.6032 43.8632 90.6565 41.9711 91.6995L36.7647 94.7242C36.0242 95.1544 35.1119 95.1544 34.3714 94.7242L24.1972 88.8134C23.4567 88.3833 23.0006 87.5882 23.0006 86.7278L23.0005 74.9063C23.0005 74.0459 23.4567 73.2509 24.1972 72.8207L34.3714 66.9098C35.1119 66.4796 36.0243 66.4796 36.7648 66.9098L46.9389 72.8205C47.6794 73.2507 48.1356 74.0458 48.1356 74.9062L48.1356 80.9555C48.1839 83.1259 49.3238 85.2193 51.3289 86.3841C53.3337 87.5488 55.7054 87.4956 57.5974 86.4525L62.8039 83.4278C63.5444 82.9976 64.4567 82.9977 65.1972 83.4278L75.3714 89.3386C76.1119 89.7688 76.5681 90.5639 76.5681 91.4243L76.568 103.246C76.568 104.106 76.1118 104.901 75.3713 105.332Z" fill="white"/>
</svg>
